<svg xmlns="http://www.w3.org/2000/svg" viewBox="0 0 220 90">
  <defs>
    <linearGradient id="bg-pfalz" x1="0%" y1="0%" x2="100%" y2="100%">
      <stop offset="0%" stop-color="#0A2A10"/><stop offset="100%" stop-color="#1A5020"/>
    </linearGradient>
  </defs>
  <rect width="220" height="90" rx="10" fill="url(#bg-pfalz)"/>
  
  <!-- Flat-to-rolling Pfalz landscape -->
  <path d="M0 52 Q60 44 120 52 Q180 60 220 50 L220 90 L0 90Z" fill="rgba(255,255,255,0.06)"/>
  <!-- Haardt mountain silhouette (backing forest) -->
  <polygon points="130,90 150,28 200,55 220,42 220,90" fill="rgba(255,255,255,0.06)"/>
  <!-- Warm sun again -->
  <circle cx="40" cy="24" r="18" fill="rgba(255,200,60,0.28)"/>
  <circle cx="40" cy="24" r="12" fill="rgba(255,215,75,0.2)"/>
  <!-- Flat vineyard rows -->
  <line x1="5" y1="78" x2="120" y2="74" stroke="rgba(255,255,255,0.22)" stroke-width="1.5"/>
  <line x1="5" y1="68" x2="120" y2="64" stroke="rgba(255,255,255,0.18)" stroke-width="1.3"/>
  <line x1="5" y1="58" x2="118" y2="54" stroke="rgba(255,255,255,0.14)" stroke-width="1.1"/>
  <line x1="8" y1="48" x2="115" y2="44" stroke="rgba(255,255,255,0.11)" stroke-width="1"/>
  <rect x="0" y="70" width="220" height="20" rx="0" fill="rgba(0,0,0,0.3)"/>
  <text x="12" y="81" font-family="Georgia,serif" font-size="10" fill="white" font-weight="bold">Pfalz</text>
  <text x="12" y="88" font-family="Arial,sans-serif" font-size="7" fill="rgba(255,255,255,0.62)">溫暖平原 · 豐滿酒體 · 國際風</text>
</svg>